<?xml version="1.0" encoding="UTF-8"?>
<svg id="Layer_3" xmlns="http://www.w3.org/2000/svg" version="1.1" viewBox="0 0 1400 1400">
  <!-- Generator: Adobe Illustrator 29.8.4, SVG Export Plug-In . SVG Version: 2.1.1 Build 6)  -->
  <defs>
    <style>
      .st0 {
        fill: #355161;
      }

      .st1 {
        fill: #375363;
      }

      .st2 {
        fill: #0e1c25;
      }

      .st3 {
        fill: #2a4352;
      }

      .st4 {
        fill: #284050;
      }

      .st5 {
        fill: #0c161d;
      }

      .st6 {
        fill: #122330;
      }

      .st7 {
        fill: #253b4b;
      }

      .st8 {
        fill: #162837;
      }

      .st9 {
        fill: #0f1e28;
      }

      .st10 {
        fill: #1b303e;
      }

      .st11 {
        fill: #132533;
      }

      .st12 {
        fill: #2c4555;
      }

      .st13 {
        fill: #334f5e;
      }

      .st14 {
        fill: #0e1b24;
      }

      .st15 {
        fill: #091115;
      }

      .st16 {
        fill: #1d3241;
      }

      .st17 {
        fill: #0b151c;
      }

      .st18 {
        fill: #304a59;
      }

      .st19 {
        fill: #0a1318;
      }

      .st20 {
        fill: #405f70;
      }

      .st21 {
        fill: #0d1a22;
      }

      .st22 {
        fill: #213746;
      }

      .st23 {
        fill: #233948;
      }

      .st24 {
        fill: #3d5a6b;
      }

      .st25 {
        fill: #0c171e;
      }

      .st26 {
        fill: #0f1d27;
      }

      .st27 {
        fill: #142634;
      }

      .st28 {
        fill: #10202b;
      }

      .st29 {
        fill: #11202c;
      }

      .st30 {
        fill: #081014;
      }

      .st31 {
        fill: #0d1921;
      }

      .st32 {
        fill: #fff;
      }

      .st33 {
        fill: #3b9aa4;
      }

      .st34 {
        fill: #0a1419;
      }

      .st35 {
        fill: #324c5c;
      }

      .st36 {
        fill: #446475;
      }

      .st37 {
        fill: #263e4d;
      }

      .st38 {
        fill: #101f29;
      }

      .st39 {
        fill: #091216;
      }

      .st40 {
        fill: #0d1820;
      }

      .st41 {
        fill: #3b5868;
      }

      .st42 {
        fill: #1a2d3c;
      }

      .st43 {
        fill: #070e11;
      }

      .st44 {
        fill: #080f12;
      }

      .st45 {
        fill: #426272;
      }

      .st46 {
        fill: #1f3443;
      }

      .st47 {
        fill: #132431;
      }

      .st48 {
        fill: #2e4757;
      }

      .st49 {
        fill: #12222f;
      }

      .st50 {
        fill: #3e5d6d;
      }

      .st51 {
        fill: #182b39;
      }

      .st52 {
        fill: #11212d;
      }

      .st53 {
        fill: #0b141a;
      }

      .st54 {
        fill: #395666;
      }
    </style>
  </defs>
  <g>
    <rect class="st27" x="243.6" y="218.31" width="912.79" height="963.38" rx="188.41" ry="188.41"/>
    <g>
      <path class="st36" d="M1156.4,451.91v-60.87c0-95-84.79-172.73-188.41-172.73H432.02c-103.63,0-188.41,77.73-188.41,172.73v60.87h912.79Z"/>
      <path class="st45" d="M1156.4,451.91v-58.57c0-95-84.79-172.73-188.41-172.73H432.02c-103.63,0-188.41,77.73-188.41,172.73v58.57h912.79Z"/>
      <path class="st20" d="M1156.4,451.91v-56.27c0-95-84.79-172.73-188.41-172.73H432.02c-103.63,0-188.41,77.73-188.41,172.73v56.27h912.79Z"/>
      <path class="st50" d="M1156.4,451.91v-53.97c0-95-84.79-172.73-188.41-172.73H432.02c-103.63,0-188.41,77.73-188.41,172.73v53.97h912.79Z"/>
      <path class="st24" d="M1156.4,451.91v-51.68c0-95-84.79-172.73-188.41-172.73H432.02c-103.63,0-188.41,77.73-188.41,172.73v51.68h912.79Z"/>
      <path class="st41" d="M1156.4,451.91v-49.38c0-95-84.79-172.73-188.41-172.73H432.02c-103.63,0-188.41,77.73-188.41,172.73v49.38h912.79Z"/>
      <path class="st54" d="M1156.4,451.91v-47.08c0-95-84.79-172.73-188.41-172.73H432.02c-103.63,0-188.41,77.73-188.41,172.73v47.08h912.79Z"/>
      <path class="st1" d="M1156.4,451.91v-44.78c0-95-84.79-172.73-188.41-172.73H432.02c-103.63,0-188.41,77.73-188.41,172.73v44.78h912.79Z"/>
      <path class="st0" d="M1156.4,451.91v-42.49c0-95-84.79-172.73-188.41-172.73H432.02c-103.63,0-188.41,77.73-188.41,172.73v42.49h912.79Z"/>
      <path class="st13" d="M1156.4,451.91v-40.19c0-95-84.79-172.73-188.41-172.73H432.02c-103.63,0-188.41,77.73-188.41,172.73v40.19h912.79Z"/>
      <path class="st35" d="M1156.4,451.91v-37.89c0-95-84.79-172.73-188.41-172.73H432.02c-103.63,0-188.41,77.73-188.41,172.73v37.89h912.79Z"/>
      <path class="st18" d="M1156.4,451.91v-35.59c0-95-84.79-172.73-188.41-172.73H432.02c-103.63,0-188.41,77.73-188.41,172.73v35.59h912.79Z"/>
      <path class="st48" d="M1156.4,451.91v-33.3c0-95-84.79-172.73-188.41-172.73H432.02c-103.63,0-188.41,77.73-188.41,172.73v33.3h912.79Z"/>
      <path class="st12" d="M1156.4,451.91v-31c0-95-84.79-172.73-188.41-172.73H432.02c-103.63,0-188.41,77.73-188.41,172.73v31h912.79Z"/>
      <path class="st3" d="M1156.4,451.91v-28.7c0-95-84.79-172.73-188.41-172.73H432.02c-103.63,0-188.41,77.73-188.41,172.73v28.7h912.79Z"/>
      <path class="st4" d="M1156.4,451.91v-26.4c0-95-84.79-172.73-188.41-172.73H432.02c-103.63,0-188.41,77.73-188.41,172.73v26.4h912.79Z"/>
      <path class="st37" d="M1156.4,451.91v-24.11c0-95-84.79-172.73-188.41-172.73H432.02c-103.63,0-188.41,77.73-188.41,172.73v24.11h912.79Z"/>
      <path class="st7" d="M1156.4,451.91v-21.81c0-95-84.79-172.73-188.41-172.73H432.02c-103.63,0-188.41,77.73-188.41,172.73v21.81h912.79Z"/>
      <path class="st23" d="M1156.4,451.91v-19.51c0-95-84.79-172.73-188.41-172.73H432.02c-103.63,0-188.41,77.73-188.41,172.73v19.51h912.79Z"/>
      <path class="st22" d="M1156.4,451.91v-17.21c0-95-84.79-172.73-188.41-172.73H432.02c-103.63,0-188.41,77.73-188.41,172.73v17.21h912.79Z"/>
      <path class="st46" d="M1156.4,451.91v-14.92c0-95-84.79-172.73-188.41-172.73H432.02c-103.63,0-188.41,77.73-188.41,172.73v14.92h912.79Z"/>
      <path class="st16" d="M1156.4,451.91v-12.62c0-95-84.79-172.73-188.41-172.73H432.02c-103.63,0-188.41,77.73-188.41,172.73v12.62h912.79Z"/>
      <path class="st10" d="M1156.4,451.91v-10.32c0-95-84.79-172.73-188.41-172.73H432.02c-103.63,0-188.41,77.73-188.41,172.73v10.32h912.79Z"/>
      <path class="st42" d="M1156.4,451.91v-8.02c0-95-84.79-172.73-188.41-172.73H432.02c-103.63,0-188.41,77.73-188.41,172.73v8.02h912.79Z"/>
      <path class="st51" d="M1156.4,451.91v-5.73c0-95-84.79-172.73-188.41-172.73H432.02c-103.63,0-188.41,77.73-188.41,172.73v5.73h912.79Z"/>
      <path class="st8" d="M1156.4,451.91v-3.43c0-95-84.79-172.73-188.41-172.73H432.02c-103.63,0-188.41,77.73-188.41,172.73v3.43h912.79Z"/>
      <path class="st27" d="M1156.4,451.91v-1.13c0-95-84.79-172.73-188.41-172.73H432.02c-103.63,0-188.41,77.73-188.41,172.73v1.13h912.79Z"/>
    </g>
    <g>
      <path class="st43" d="M243.6,955.51v58.93c0,91.98,84.79,167.24,188.41,167.24h535.96c103.63,0,188.41-75.26,188.41-167.24v-58.93H243.6Z"/>
      <path class="st44" d="M243.6,955.51v56.71c0,91.98,84.79,167.24,188.41,167.24h535.96c103.63,0,188.41-75.26,188.41-167.24v-56.71H243.6Z"/>
      <path class="st30" d="M243.6,955.51v54.48c0,91.98,84.79,167.24,188.41,167.24h535.96c103.63,0,188.41-75.26,188.41-167.24v-54.48H243.6Z"/>
      <path class="st15" d="M243.6,955.51v52.26c0,91.98,84.79,167.24,188.41,167.24h535.96c103.63,0,188.41-75.26,188.41-167.24v-52.26H243.6Z"/>
      <path class="st39" d="M243.6,955.51v50.04c0,91.98,84.79,167.24,188.41,167.24h535.96c103.63,0,188.41-75.26,188.41-167.24v-50.04H243.6Z"/>
      <path class="st19" d="M243.6,955.51v47.81c0,91.98,84.79,167.24,188.41,167.24h535.96c103.63,0,188.41-75.26,188.41-167.24v-47.81H243.6Z"/>
      <path class="st34" d="M243.6,955.51v45.59c0,91.98,84.79,167.24,188.41,167.24h535.96c103.63,0,188.41-75.26,188.41-167.24v-45.59H243.6Z"/>
      <path class="st53" d="M243.6,955.51v43.36c0,91.98,84.79,167.24,188.41,167.24h535.96c103.63,0,188.41-75.26,188.41-167.24v-43.36H243.6Z"/>
      <path class="st17" d="M243.6,955.51v41.14c0,91.98,84.79,167.24,188.41,167.24h535.96c103.63,0,188.41-75.26,188.41-167.24v-41.14H243.6Z"/>
      <path class="st5" d="M243.6,955.51v38.91c0,91.98,84.79,167.24,188.41,167.24h535.96c103.63,0,188.41-75.26,188.41-167.24v-38.91H243.6Z"/>
      <path class="st25" d="M243.6,955.51v36.69c0,91.98,84.79,167.24,188.41,167.24h535.96c103.63,0,188.41-75.26,188.41-167.24v-36.69H243.6Z"/>
      <path class="st40" d="M243.6,955.51v34.46c0,91.98,84.79,167.24,188.41,167.24h535.96c103.63,0,188.41-75.26,188.41-167.24v-34.46H243.6Z"/>
      <path class="st31" d="M243.6,955.51v32.24c0,91.98,84.79,167.24,188.41,167.24h535.96c103.63,0,188.41-75.26,188.41-167.24v-32.24H243.6Z"/>
      <path class="st21" d="M243.6,955.51v30.01c0,91.98,84.79,167.24,188.41,167.24h535.96c103.63,0,188.41-75.26,188.41-167.24v-30.01H243.6Z"/>
      <path class="st14" d="M243.6,955.51v27.79c0,91.98,84.79,167.24,188.41,167.24h535.96c103.63,0,188.41-75.26,188.41-167.24v-27.79H243.6Z"/>
      <path class="st2" d="M243.6,955.51v25.56c0,91.98,84.79,167.24,188.41,167.24h535.96c103.63,0,188.41-75.26,188.41-167.24v-25.56H243.6Z"/>
      <path class="st26" d="M243.6,955.51v23.34c0,91.98,84.79,167.24,188.41,167.24h535.96c103.63,0,188.41-75.26,188.41-167.24v-23.34H243.6Z"/>
      <path class="st9" d="M243.6,955.51v21.12c0,91.98,84.79,167.24,188.41,167.24h535.96c103.63,0,188.41-75.26,188.41-167.24v-21.12H243.6Z"/>
      <path class="st38" d="M243.6,955.51v18.89c0,91.98,84.79,167.24,188.41,167.24h535.96c103.63,0,188.41-75.26,188.41-167.24v-18.89H243.6Z"/>
      <path class="st28" d="M243.6,955.51v16.67c0,91.98,84.79,167.24,188.41,167.24h535.96c103.63,0,188.41-75.26,188.41-167.24v-16.67H243.6Z"/>
      <path class="st29" d="M243.6,955.51v14.44c0,91.98,84.79,167.24,188.41,167.24h535.96c103.63,0,188.41-75.26,188.41-167.24v-14.44H243.6Z"/>
      <path class="st52" d="M243.6,955.51v12.22c0,91.98,84.79,167.24,188.41,167.24h535.96c103.63,0,188.41-75.26,188.41-167.24v-12.22H243.6Z"/>
      <path class="st49" d="M243.6,955.51v9.99c0,91.98,84.79,167.24,188.41,167.24h535.96c103.63,0,188.41-75.26,188.41-167.24v-9.99H243.6Z"/>
      <path class="st6" d="M243.6,955.51v7.77c0,91.98,84.79,167.24,188.41,167.24h535.96c103.63,0,188.41-75.26,188.41-167.24v-7.77H243.6Z"/>
      <path class="st47" d="M243.6,955.51v5.54c0,91.98,84.79,167.24,188.41,167.24h535.96c103.63,0,188.41-75.26,188.41-167.24v-5.54H243.6Z"/>
      <path class="st11" d="M243.6,955.51v3.32c0,91.98,84.79,167.24,188.41,167.24h535.96c103.63,0,188.41-75.26,188.41-167.24v-3.32H243.6Z"/>
      <path class="st27" d="M243.6,955.51v1.09c0,91.98,84.79,167.24,188.41,167.24h535.96c103.63,0,188.41-75.26,188.41-167.24v-1.09H243.6Z"/>
    </g>
  </g>
  <g>
    <path class="st33" d="M923.9,489.86c4.51,0,8.16-3.65,8.16-8.16s-3.65-8.16-8.16-8.16h-29.13v-3.14c.02-1.43.21-6.85-.2-13.77h29.32c4.51,0,8.16-3.65,8.16-8.16s-3.65-8.16-8.16-8.16h-31.4c-1.27-6-3.21-11.84-6.17-16.42-4.62-7.15-10.48-10.06-13.9-12.39l-1.21-13.04-.02-.36c-.89-11.63-10.79-22.35-12.76-24.38-2.89-2.97-15.75-13.47-29.66-15.01v-29.91c0-4.51-3.65-8.16-8.16-8.16h0c-4.51,0-8.16,3.65-8.16,8.16v29.72h-18.3v-29.72c0-4.51-3.65-8.16-8.16-8.16s-8.16,3.65-8.16,8.16v29.72h-18.3v-29.72c0-4.51-3.65-8.16-8.16-8.16s-8.16,3.65-8.16,8.16v29.76c-16.81,1.17-29.81,17.17-29.81,30.3v47.23l19.49,8.16v-55.39c0-3.15,5.56-10.35,11.56-10.86h33.93l-7.11,22.51c-7.47,1.31-13.16,7.82-13.16,15.67,0,8.79,7.13,15.92,15.92,15.92s15.92-7.13,15.92-15.92c0-4.05-1.53-7.74-4.02-10.55l8.73-27.63h30.78c7.18,0,17.14,7.41,19.03,9.3,3.29,3.39,6.76,7.19,7.29,12.16l.43,10.81c-.04,1.07-.51,1.48-.87,1.88-4.31,4.81-12.3,13.21-17.44,16.23-4.13,2.43-10.89,3.19-13.06,3.62-.35.07-.67.24-.93.48l-75.25,71.03c.07-15.11-.5-41.03-5.15-44.37-7.29-5.23-19.82-3.01-24.15-6.81v19.79l-66.73-56.27c.83-2.12,1.3-4.42,1.3-6.83,0-3.15-.79-6.12-2.17-8.73l28.65-39.09c.26,12.22.89,42.56.96,43.67.35,5.91.74,12.61,5.26,18.99l.42.6,30.36,26.46v-14.83l-21.12-19.9c-2.14-3.38-2.37-7.41-2.64-12.03-.07-1.24-.85-38.85-1.01-46.74,6.9-2.76,11.78-9.49,11.78-17.38,0-10.34-8.38-18.72-18.72-18.72-9.71,0-17.69,7.39-18.63,16.86l-47.24,2.13c-2.73-6.96-9.49-11.9-17.42-11.9-10.34,0-18.72,8.38-18.72,18.72,0,2.41.47,4.71,1.3,6.83l-42.12,34.06c-4.25-3.07-9.47-4.88-15.12-4.88-14.3,0-25.89,11.59-25.89,25.89,0,7.75,3.41,14.71,8.81,19.45l-24.95,51.99c-2.73-.66-5.58-1.02-8.51-1.02-19.97,0-36.16,16.19-36.16,36.16s16.19,36.16,36.16,36.16c3.35,0,6.6-.47,9.68-1.32l23.99,48.27c-5.52,4.75-9.02,11.78-9.02,19.63,0,14.3,11.59,25.89,25.89,25.89,6.4,0,12.25-2.33,16.77-6.17l40.42,26.97c-.31,1.35-.49,2.75-.49,4.2,0,10.34,8.38,18.72,18.72,18.72s18.72-8.38,18.72-18.72c0-3.92-1.21-7.56-3.27-10.57l14.85-22.25c1.55.42,3.17.66,4.85.66s3.42-.26,5.02-.7l27.12,37.54c-1.72,2.83-2.73,6.14-2.73,9.69,0,10.34,8.38,18.72,18.72,18.72s18.72-8.38,18.72-18.72c0-8.07-5.11-14.93-12.27-17.56.28-13.47.82-39.03.87-40.05.27-4.62.51-8.65,2.64-12.03l20.98-19.78v50c0,13.23,13.17,29.36,30.16,30.33l.28.02h35.12v50.51l-30.11-34.8h-29.14l64.07,68.4c3.31,1.8,9.42,6.04,17.98.86,5.08-3.08,7.74-12.46,4.44-16.82-5.3-7.01-12.4-16.74-12.4-16.74v-51.4h18.39v25.79c0,4.51,3.65,8.16,8.16,8.16s8.16-3.65,8.16-8.16v-25.96c14.02-1.42,27.04-12.05,29.95-15.04,1.97-2.03,11.88-11.62,12.76-24.38l.33-16.22c2.32-1.21,7.7-3.79,9.49-5.57,4.05-4.01,10.68-10.34,13.05-23.59h29.82c4.51,0,8.16-3.65,8.16-8.16s-3.65-8.16-8.16-8.16h-29.13v-16.91h29.13c4.51,0,8.16-3.65,8.16-8.16s-3.65-8.16-8.16-8.16h-29.13v-16.91h29.13c4.51,0,8.16-3.65,8.16-8.16s-3.65-8.16-8.16-8.16h-29.13v-16.91h29.13ZM616.2,352.91l50.07-2.26c.35.51.74,1.01,1.14,1.48l-29.02,39.6c-2.22-.92-4.64-1.44-7.19-1.44-.86,0-1.7.08-2.53.19l-16.28-30.95c1.69-1.91,3.01-4.15,3.82-6.63ZM589.27,363.47c2.7,1.51,5.81,2.38,9.12,2.38,1,0,1.97-.1,2.92-.25l16.15,30.71c-2.09,2.25-3.62,5.02-4.41,8.09h-63.86c-.43-2.38-1.18-4.64-2.21-6.75l42.27-34.19ZM548.37,417.01h65.91c.78,1.65,1.79,3.16,3,4.5l-16.18,35.12h-20.78l-34.34-34.34c.99-1.65,1.79-3.42,2.39-5.27ZM537.61,596.5c-.6-.38-1.22-.74-1.85-1.07l8.89-32.86c4.09-1.88,6.93-6,6.93-10.8,0-6.57-5.32-11.89-11.89-11.89s-11.89,5.32-11.89,11.89c0,3.65,1.65,6.91,4.24,9.09l-8.55,31.6c-1.84.02-3.63.23-5.36.61l-23.89-48.07c7.75-5.56,13.22-14.1,14.7-23.96h108.28c2.39,4.51,7.13,7.58,12.59,7.58,7.87,0,14.25-6.38,14.25-14.25s-6.38-14.25-14.25-14.25c-5.75,0-10.68,3.41-12.94,8.31h-108.24c-1.92-9.52-7.58-17.69-15.38-22.91l24.62-51.29c1.19.28,2.42.47,3.67.57l7.98,36.76c-1.08,1.79-1.72,3.88-1.72,6.13,0,6.57,5.32,11.89,11.89,11.89s11.89-5.32,11.89-11.89c0-6.05-4.53-11.04-10.38-11.78l-7.19-33.14c1.06-.46,2.08-.98,3.06-1.57l39.98,39.98,2.04,28.68c.13,1.77,1.5,3.2,3.26,3.4l21.53,2.38v-27.25c7.94.01,16.78.12,22.38.31,6.03.21,11.79,1.41,17.28,3.6,7.59,3.08,13.2,7.35,16.85,12.81,3.65,5.46,5.47,12.02,5.47,19.7s-1.73,14.18-5.2,19.5c-3.47,5.33-8.53,9.5-15.17,12.53-5.64,2.56-11.58,3.95-17.83,4.19-5.83.22-15.17.34-23.79.35v-24.01l-21.74,5.94c-1.51.41-2.6,1.72-2.75,3.27l-2.07,22.41-39.72,37.49ZM580.62,573.25h20.6l16.27,36.17h-69.44c-.48-1.31-1.07-2.57-1.75-3.78l34.32-32.4ZM604.38,651.26c-1.66-.48-3.41-.75-5.23-.75-4.3,0-8.26,1.47-11.42,3.91l-39.9-26.62c.72-1.83,1.24-3.76,1.52-5.77h66.59c.53,2.65,1.62,5.08,3.14,7.2l-14.7,22.04ZM634.3,599.62c-2.41,0-4.7.46-6.81,1.29l-12.44-27.67h.9c8.8,0,17.09-.56,24.89-1.68,7.8-1.12,15.01-3.64,21.63-7.56,7.94-4.59,14.51-11.19,19.71-19.78,5.2-8.59,7.8-18.31,7.8-29.17s-2.43-21.08-7.28-29.41c-4.85-8.33-11.48-14.94-19.88-19.85-6.85-4.02-14.2-6.55-22.02-7.6-7.83-1.04-16.22-1.57-25.19-1.57h-.63l13.4-29.09c.92.14,1.85.21,2.81.21,3.32,0,6.43-.87,9.13-2.38l75.02,63.26v54.23l-72.66,58.76c-2.52-1.27-5.36-1.99-8.37-1.99ZM851.62,633.86c-.01.44-.08.88-.21,1.31-1.4,4.57-2.6,7.33-5.73,10.55-1.9,1.89-9.22,8.03-20.24,9.31h-18.71l-18.78-32.53c1.84-2.65,2.88-5.9,2.77-9.4-.28-8.4-7.41-15.18-15.81-15.06-8.51.12-15.38,7.06-15.38,15.6s6.32,14.89,14.34,15.54l14.93,25.86h-44.36c-6-.51-11.56-7.71-11.56-10.86v-56.76l-19.36,6.31v-14.5l-30.36,26.46-.42.6c-4.52,6.37-4.91,13.07-5.26,18.99-.06,1.03-.61,26.98-.89,40.57-.17.05-.17.05-.34.1l-26.62-36.85c2.14-3.04,3.4-6.74,3.4-10.74,0-2.7-.58-5.26-1.61-7.58l63.92-51.7v18.47c4.33-3.8,16.86-1.58,24.15-6.81,3.65-2.62,4.79-19.18,5.07-33.48l8.46-7.98,67.92,67.92c.2.2.43.34.7.41,1.8.51,7.2,1.9,11.22,3.23,6.72,2.22,15.86,10.68,18.73,16.79.29.62.43,1.3.41,1.98l-.39,14.26ZM876.31,470.18v37.89h-36.11c-2.33-4.7-7.16-7.94-12.76-7.94-7.87,0-14.25,6.38-14.25,14.25s6.38,14.25,14.25,14.25c5.6,0,10.44-3.24,12.76-7.94h36.11v62.68c-.8,8.66-3.18,12.51-8.45,16.69-2.32,1.84-6.74,1.96-10.19-.74l-86.85-86.85,86.95-82.66c3.34-2.07,6.71-.66,8.33.08,1.78.82,4.15,2.44,5.69,6.01,1.32,3.07,4.65,24.49,4.51,34.29Z"/>
    <g>
      <g>
        <path class="st32" d="M548.5,865.69c0,8.2-1.41,15.77-4.24,22.69-2.83,6.93-6.81,12.92-11.95,17.98-5.14,5.06-11.33,9.01-18.57,11.83-7.24,2.83-15.27,4.24-24.1,4.24h-44.07v-113.43h44.07c8.82,0,16.86,1.43,24.1,4.28,7.24,2.86,13.43,6.8,18.57,11.83,5.14,5.03,9.12,11.02,11.95,17.95,2.83,6.93,4.24,14.47,4.24,22.62ZM521.56,865.69c0-5.61-.73-10.67-2.18-15.18-1.45-4.52-3.54-8.34-6.27-11.48-2.73-3.14-6.06-5.55-10-7.24-3.95-1.69-8.43-2.53-13.47-2.53h-17.6v72.95h17.6c5.03,0,9.52-.84,13.47-2.53,3.94-1.69,7.28-4.1,10-7.24,2.72-3.14,4.81-6.97,6.27-11.48,1.45-4.52,2.18-9.6,2.18-15.26Z"/>
        <path class="st32" d="M590.54,829.26v26.47h35.66v19.46h-35.66v27.02h46.56v20.24h-73.03v-113.43h73.03v20.24h-46.56Z"/>
        <path class="st32" d="M755.04,809.02l-45.47,113.43h-23.82l-45.47-113.43h21.18c2.28,0,4.13.53,5.53,1.6,1.4,1.06,2.46,2.43,3.19,4.09l21.95,60.73c1.04,2.65,2.05,5.54,3.04,8.68.99,3.14,1.92,6.42,2.8,9.85.73-3.42,1.54-6.71,2.45-9.85.91-3.14,1.88-6.03,2.92-8.68l21.8-60.73c.57-1.45,1.6-2.76,3.08-3.93,1.48-1.17,3.31-1.75,5.49-1.75h21.33Z"/>
        <path class="st32" d="M790.31,854.95h4.2c3.89,0,6.7-1.22,8.41-3.66l25.54-37.06c1.5-1.97,3.13-3.33,4.87-4.09,1.74-.75,3.9-1.13,6.5-1.13h22.89l-33.63,45.86c-2.39,3.17-4.96,5.45-7.71,6.85,1.97.73,3.76,1.74,5.37,3.04,1.61,1.3,3.11,2.99,4.52,5.06l34.26,52.63h-23.51c-1.51,0-2.79-.1-3.85-.31-1.06-.21-1.99-.52-2.76-.93-.78-.41-1.45-.92-2.02-1.52-.57-.6-1.12-1.28-1.64-2.06l-25.69-39.47c-.93-1.45-2.12-2.48-3.54-3.08-1.43-.6-3.36-.9-5.8-.9h-6.38v48.27h-26.31v-113.43h26.31v45.93Z"/>
        <path class="st32" d="M954.43,818.51c0,1.35-.22,2.67-.66,3.97-.44,1.3-1.05,2.52-1.83,3.66l-53.25,76.06h54.03v20.24h-87.51v-10.12c0-1.19.21-2.37.62-3.54.41-1.17.99-2.24,1.71-3.23l53.41-76.3h-51.38v-20.24h84.86v9.5Z"/>
      </g>
      <g>
        <path class="st32" d="M653.87,954.06l-45.47,113.44h-23.82l-45.47-113.44h21.18c2.28,0,4.13.53,5.53,1.6,1.4,1.06,2.46,2.43,3.19,4.09l21.95,60.73c1.04,2.65,2.05,5.54,3.04,8.68.99,3.14,1.92,6.42,2.8,9.85.73-3.43,1.54-6.71,2.45-9.85.91-3.14,1.88-6.03,2.92-8.68l21.8-60.73c.57-1.45,1.6-2.76,3.08-3.93,1.48-1.17,3.31-1.75,5.49-1.75h21.33Z"/>
        <path class="st32" d="M702.84,954.06c7.99,0,14.86.95,20.59,2.84,5.73,1.9,10.46,4.5,14.17,7.82,3.71,3.32,6.45,7.24,8.21,11.76,1.76,4.52,2.65,9.39,2.65,14.64,0,5.66-.91,10.85-2.73,15.57-1.82,4.72-4.59,8.77-8.33,12.15s-8.47,6.01-14.21,7.9c-5.74,1.9-12.52,2.84-20.36,2.84h-13.7v37.92h-26.31v-113.44h40.02ZM702.84,1009.73c6.85,0,11.78-1.64,14.79-4.91,3.01-3.27,4.52-7.84,4.52-13.7,0-2.6-.39-4.96-1.17-7.09-.78-2.13-1.96-3.96-3.54-5.49-1.58-1.53-3.58-2.71-5.99-3.54-2.41-.83-5.28-1.25-8.6-1.25h-13.7v35.97h13.7Z"/>
        <path class="st32" d="M860.89,954.06v113.44h-13.7c-2.02,0-3.73-.32-5.1-.97-1.38-.65-2.74-1.78-4.09-3.39l-53.49-67.66c.21,2.02.35,3.98.43,5.88.08,1.9.12,3.67.12,5.33v60.8h-23.2v-113.44h13.86c1.14,0,2.1.05,2.88.16.78.11,1.48.3,2.1.58.62.29,1.22.69,1.79,1.21.57.52,1.22,1.22,1.95,2.1l53.95,68.12c-.26-2.18-.44-4.29-.55-6.35-.1-2.05-.16-3.98-.16-5.8v-60.03h23.2Z"/>
      </g>
    </g>
  </g>
</svg>